<svg width="28" height="28" viewBox="0 0 19 19" fill="none" xmlns="http://www.w3.org/2000/svg">
	<path d="M15.4621 13.1273C15.1478 13.1273 14.8808 13.0172 14.6611 12.797C14.4408 12.5772 14.3307 12.3102 14.3307 11.9959V10.1103C14.3307 9.79605 14.4408 9.52905 14.6611 9.30931C14.8808 9.08907 15.1478 8.97895 15.4621 8.97895C15.7763 8.97895 16.0433 9.08907 16.2631 9.30931C16.4833 9.52905 16.5934 9.79605 16.5934 10.1103V11.9959C16.5934 12.3102 16.4833 12.5772 16.2631 12.797C16.0433 13.0172 15.7763 13.1273 15.4621 13.1273ZM15.0849 15.7672V14.5981C14.4438 14.4975 13.9066 14.2054 13.4731 13.7217C13.0392 13.2374 12.8222 12.6622 12.8222 11.9959H13.5765C13.5765 12.5239 13.7587 12.9702 14.1233 13.3347C14.4878 13.6993 14.9341 13.8816 15.4621 13.8816C15.99 13.8816 16.4363 13.6993 16.8009 13.3347C17.1654 12.9702 17.3477 12.5239 17.3477 11.9959H18.1019C18.1019 12.6622 17.8852 13.2374 17.4518 13.7217C17.0178 14.2054 16.4803 14.4975 15.8392 14.5981V15.7672H15.0849ZM6.78822 9.7332C5.95855 9.7332 5.2483 9.43779 4.65747 8.84696C4.06665 8.25613 3.77123 7.54588 3.77123 6.71621C3.77123 5.88654 4.06665 5.17629 4.65747 4.58546C5.2483 3.99463 5.95855 3.69922 6.78822 3.69922C6.96421 3.69922 7.13719 3.71179 7.30715 3.73693C7.4766 3.76207 7.64304 3.80607 7.80646 3.86892C7.47962 4.25862 7.2282 4.69558 7.05221 5.17981C6.87622 5.66353 6.78822 6.17567 6.78822 6.71621C6.78822 7.25675 6.87622 7.76889 7.05221 8.25261C7.2282 8.73684 7.47962 9.1738 7.80646 9.5635C7.64304 9.62635 7.4766 9.67035 7.30715 9.69549C7.13719 9.72063 6.96421 9.7332 6.78822 9.7332ZM0.754242 15.7672V13.6741C0.754242 13.2467 0.861094 12.8508 1.0748 12.4862C1.2885 12.1217 1.58391 11.8451 1.96104 11.6565C2.43873 11.4051 2.9574 11.1884 3.51705 11.0064C4.0762 10.8238 4.6889 10.6823 5.35515 10.5817C4.85232 10.9337 4.46263 11.38 4.18607 11.9205C3.90951 12.4611 3.77123 13.0456 3.77123 13.6741V15.7672H0.754242ZM11.3137 9.7332C10.484 9.7332 9.77379 9.43779 9.18296 8.84696C8.59213 8.25613 8.29672 7.54588 8.29672 6.71621C8.29672 5.88654 8.59213 5.17629 9.18296 4.58546C9.77379 3.99463 10.484 3.69922 11.3137 3.69922C12.1434 3.69922 12.8536 3.99463 13.4445 4.58546C14.0353 5.17629 14.3307 5.88654 14.3307 6.71621C14.3307 7.54588 14.0353 8.25613 13.4445 8.84696C12.8536 9.43779 12.1434 9.7332 11.3137 9.7332ZM11.3137 8.22471C11.7285 8.22471 12.0838 8.07687 12.3795 7.78121C12.6746 7.48605 12.8222 7.13105 12.8222 6.71621C12.8222 6.30137 12.6746 5.94637 12.3795 5.65121C12.0838 5.35555 11.7285 5.20771 11.3137 5.20771C10.8989 5.20771 10.5439 5.35555 10.2487 5.65121C9.95305 5.94637 9.80521 6.30137 9.80521 6.71621C9.80521 7.13105 9.95305 7.48605 10.2487 7.78121C10.5439 8.07687 10.8989 8.22471 11.3137 8.22471ZM5.27973 15.7672V13.6741C5.27973 13.2467 5.38658 12.8508 5.60028 12.4862C5.81399 12.1217 6.1094 11.8451 6.48653 11.6565C7.12764 11.3297 7.85372 11.0531 8.66479 10.8269C9.47536 10.6006 10.3583 10.4874 11.3137 10.4874C11.4646 10.4874 11.6124 10.4905 11.7572 10.4965C11.9015 10.503 12.0428 10.5126 12.1811 10.5252C12.0554 10.7514 11.9518 10.9873 11.8703 11.2326C11.7884 11.4775 11.7348 11.732 11.7097 11.9959H11.3137C10.4086 11.9959 9.6071 12.1091 8.90917 12.3354C8.21174 12.5616 7.63675 12.7879 7.1842 13.0142C7.0585 13.077 6.96095 13.168 6.89156 13.2872C6.82267 13.4069 6.78822 13.5359 6.78822 13.6741V14.2587H12.2C12.3885 14.5855 12.6211 14.8747 12.8976 15.1261C13.1742 15.3775 13.4822 15.5912 13.8216 15.7672H5.27973Z" fill="#000" />
</svg>
