<svg width="20" height="20" viewBox="0 0 13 13" fill="none" xmlns="http://www.w3.org/2000/svg">
	<path d="M11.8833 12.875L7.42083 8.4125C7.06667 8.69583 6.65937 8.92014 6.19896 9.08542C5.73854 9.25069 5.24861 9.33333 4.72917 9.33333C3.44236 9.33333 2.35342 8.88779 1.46233 7.99671C0.570778 7.10515 0.125 6.01597 0.125 4.72917C0.125 3.44236 0.570778 2.35318 1.46233 1.46162C2.35342 0.570542 3.44236 0.125 4.72917 0.125C6.01597 0.125 7.10515 0.570542 7.99671 1.46162C8.88779 2.35318 9.33333 3.44236 9.33333 4.72917C9.33333 5.24861 9.25069 5.73854 9.08542 6.19896C8.92014 6.65937 8.69583 7.06667 8.4125 7.42083L12.875 11.8833L11.8833 12.875ZM4.72917 7.91667C5.61458 7.91667 6.36731 7.60689 6.98733 6.98733C7.60689 6.36731 7.91667 5.61458 7.91667 4.72917C7.91667 3.84375 7.60689 3.09103 6.98733 2.471C6.36731 1.85144 5.61458 1.54167 4.72917 1.54167C3.84375 1.54167 3.09103 1.85144 2.471 2.471C1.85144 3.09103 1.54167 3.84375 1.54167 4.72917C1.54167 5.61458 1.85144 6.36731 2.471 6.98733C3.09103 7.60689 3.84375 7.91667 4.72917 7.91667Z" fill="#000" />
</svg>
